<svg width="560" height="217" viewBox="0 0 560 217" fill="none" xmlns="http://www.w3.org/2000/svg">
<path d="M401.534 183.154C484.333 158.364 564.328 152.822 626.718 163.879C689.141 174.943 733.781 202.585 746.185 244.014C758.589 285.442 736.484 333.068 690.412 376.615C644.364 420.14 574.486 459.47 491.687 484.26C408.888 509.051 328.893 514.593 266.503 503.536C204.081 492.472 159.44 464.83 147.036 423.401C134.632 381.973 156.737 334.347 202.809 290.8C248.857 247.275 318.736 207.945 401.534 183.154Z" stroke="#D6C26A"/>
<path d="M398.599 173.347C484.583 147.603 567.789 142.294 632.798 154.5C697.835 166.712 744.51 196.415 757.727 240.558C770.943 284.701 748.271 335.167 700.646 381.11C653.041 427.033 580.608 468.323 494.624 494.067C408.64 519.811 325.433 525.12 260.425 512.914C195.388 500.703 148.713 471 135.496 426.856C122.279 382.713 144.951 332.247 192.577 286.304C240.181 240.382 312.615 199.091 398.599 173.347Z" stroke="#D6C26A"/>
<path d="M395.662 163.54C484.831 136.842 571.25 131.767 638.877 145.121C706.529 158.481 755.238 190.245 769.267 237.103C783.297 283.96 760.058 337.266 710.879 385.605C661.718 433.926 586.729 477.177 497.56 503.874C408.391 530.572 321.972 535.648 254.345 522.293C186.693 508.934 137.985 477.169 123.955 430.312C109.926 383.454 133.163 330.149 182.343 281.81C231.504 233.488 306.493 190.237 395.662 163.54Z" stroke="#D6C26A"/>
<path d="M392.726 153.732C485.081 126.081 574.712 121.24 644.957 135.743C715.225 150.25 765.965 184.077 780.807 233.647C795.649 283.218 771.847 339.364 721.113 390.099C670.395 440.819 592.851 486.03 500.496 513.681C408.142 541.333 318.51 546.175 248.265 531.672C177.997 517.165 127.256 483.337 112.415 433.767C97.573 384.196 121.375 328.051 172.109 277.315C222.827 226.596 300.372 181.384 392.726 153.732Z" stroke="#D6C26A"/>
<path d="M389.789 143.925C485.329 115.32 578.173 110.712 651.037 126.364C723.922 142.019 776.694 177.908 792.348 230.192C808.002 282.475 783.636 341.461 731.347 394.594C679.072 447.712 598.972 494.885 503.432 523.49C407.893 552.095 315.049 556.702 242.185 541.051C169.3 525.396 116.528 489.506 100.874 437.222C85.2203 384.939 109.587 325.953 161.876 272.821C214.15 219.703 294.249 172.53 389.789 143.925Z" stroke="#D6C26A"/>
<path d="M386.853 134.118C485.578 104.559 581.634 100.186 657.118 116.985C732.619 133.789 787.422 171.741 803.889 226.736C820.355 281.732 795.424 343.558 741.58 399.088C687.749 454.605 605.094 503.738 506.369 533.297C407.643 562.856 311.587 567.229 236.104 550.43C160.603 533.626 105.799 495.673 89.3333 440.677C72.8675 385.681 97.7971 323.857 151.641 268.327C205.472 212.81 288.127 163.677 386.853 134.118Z" stroke="#D6C26A"/>
<path d="M383.916 124.311C485.827 93.7981 585.096 89.6573 663.198 107.606C741.317 125.558 798.151 165.574 815.429 223.282C832.706 280.99 807.215 345.654 751.815 403.582C696.427 461.498 611.216 512.591 509.305 543.104C407.394 573.616 308.125 577.757 230.023 559.809C151.905 541.857 95.071 501.841 77.7928 444.133C60.5148 386.425 86.0065 321.76 141.406 263.832C196.794 205.917 282.005 154.823 383.916 124.311Z" stroke="#D6C26A"/>
<path d="M380.981 114.503C486.078 83.037 588.559 79.1304 669.279 98.2271C750.015 117.327 808.88 159.407 826.97 219.826C845.06 280.246 819.005 347.75 762.049 408.076C705.105 468.39 617.339 521.444 512.242 552.911C407.145 584.377 304.664 588.284 223.943 569.187C143.207 550.087 84.3431 508.008 66.2531 447.588C48.1631 387.169 74.2173 319.664 131.173 259.339C188.118 199.024 275.884 145.97 380.981 114.503Z" stroke="#D6C26A"/>
</svg>
