<svg width="812" height="559" viewBox="0 0 812 559" fill="none" xmlns="http://www.w3.org/2000/svg">
<path d="M528.845 266.548C636.079 234.442 741.862 234.512 826.194 260.555C910.529 286.599 973.357 338.594 994.828 410.306C1016.3 482.019 992.383 559.986 936.236 628.091C880.091 696.193 791.752 754.384 684.518 786.49C577.283 818.597 471.5 818.527 387.168 792.484C302.832 766.44 240.004 714.445 218.533 642.732C197.063 571.02 220.979 493.053 277.126 424.948C333.271 356.846 421.611 298.655 528.845 266.548Z" stroke="#FFD82A"/>
<path d="M523.782 249.636C635.141 216.295 745.225 217.138 833.178 245.43C921.133 273.723 986.906 329.443 1009.78 405.831C1032.65 482.219 1008.32 564.917 950.382 636.89C892.449 708.86 800.941 770.061 689.582 803.403C578.222 836.744 468.138 835.901 380.186 807.609C292.231 779.316 226.458 723.596 203.587 647.208C180.716 570.82 205.046 488.122 262.981 416.149C320.915 344.179 412.422 282.978 523.782 249.636Z" stroke="#FFD82A"/>
<path d="M518.718 232.724C634.203 198.147 748.588 199.765 840.161 230.305C931.736 260.847 1000.45 320.293 1024.72 401.356C1048.99 482.42 1024.25 569.848 964.529 645.688C904.806 721.528 810.13 785.739 694.645 820.316C579.161 854.892 464.775 853.275 373.202 822.734C281.628 792.193 212.911 732.747 188.64 651.683C164.369 570.62 189.112 483.192 248.835 407.351C308.557 331.512 403.233 267.301 518.718 232.724Z" stroke="#FFD82A"/>
<path d="M513.654 215.812C633.264 180 751.951 182.39 847.145 215.18C942.339 247.97 1014 311.143 1039.67 396.881C1065.34 482.619 1040.19 574.778 978.675 654.487C917.164 734.195 819.318 801.416 699.708 837.227C580.098 873.039 461.411 870.649 366.218 837.859C271.024 805.069 199.363 741.897 173.692 656.159C148.022 570.421 173.176 478.261 234.688 398.552C296.198 318.844 394.044 251.623 513.654 215.812Z" stroke="#FFD82A"/>
<path d="M508.591 198.899C632.326 161.852 755.316 165.016 854.129 200.056C952.944 235.095 1027.55 301.993 1054.62 392.405C1081.69 482.818 1056.12 579.707 992.822 663.284C929.522 746.861 828.508 817.093 704.773 854.14C581.037 891.187 458.047 888.023 359.233 852.984C260.419 817.944 185.815 751.046 158.745 660.633C131.675 570.221 157.241 473.332 220.54 389.755C283.84 306.178 384.855 235.946 508.591 198.899Z" stroke="#FFD82A"/>
<path d="M503.527 181.987C631.388 143.705 758.68 147.642 861.115 184.93C963.549 222.219 1041.1 292.844 1069.57 387.93C1098.03 483.016 1072.06 584.637 1006.97 672.083C941.882 759.529 837.697 832.771 709.836 871.053C581.975 909.335 454.683 905.398 352.249 868.109C249.814 830.82 172.267 760.195 143.798 665.109C115.329 570.022 141.305 468.403 206.393 380.957C271.482 293.511 375.666 220.269 503.527 181.987Z" stroke="#FFD82A"/>
<path d="M498.463 165.075C630.449 125.557 762.043 130.267 868.098 169.805C974.153 209.344 1054.64 283.695 1084.51 383.455C1114.38 483.215 1087.99 589.565 1021.12 680.88C954.239 772.195 846.886 848.447 714.899 887.965C582.912 927.482 451.318 922.772 345.263 883.234C239.208 843.695 158.719 769.344 128.85 669.584C98.9816 569.824 125.368 463.474 192.245 372.159C259.122 280.844 366.476 204.592 498.463 165.075Z" stroke="#FFD82A"/>
<path d="M493.4 148.162C629.513 107.409 765.409 112.893 875.085 154.681C984.761 196.469 1068.19 274.547 1099.46 378.98C1130.73 483.413 1103.93 594.493 1035.27 689.677C966.599 784.862 856.076 864.125 719.964 904.877C583.851 945.63 447.955 940.146 338.278 898.358C228.603 856.57 145.172 778.492 113.904 674.059C82.6366 569.626 109.433 458.546 178.098 363.362C246.764 268.178 357.287 188.915 493.4 148.162Z" stroke="#FFD82A"/>
</svg>
