<svg width="133" height="124" viewBox="0 0 133 124" fill="none" xmlns="http://www.w3.org/2000/svg">
<path d="M62.0667 62C62.0667 57.1101 60.3349 52.9353 56.8714 49.4754C53.4078 46.0156 49.2285 44.2857 44.3333 44.2857C39.4382 44.2857 35.2589 46.0156 31.7953 49.4754C28.3318 52.9353 26.6 57.1101 26.6 62C26.6 66.8899 28.3318 71.0647 31.7953 74.5246C35.2589 77.9844 39.4382 79.7143 44.3333 79.7143C49.2285 79.7143 53.4078 77.9844 56.8714 74.5246C60.3349 71.0647 62.0667 66.8899 62.0667 62ZM115.267 97.4286C115.267 95.0298 114.389 92.9539 112.634 91.2009C110.88 89.4479 108.801 88.5714 106.4 88.5714C103.999 88.5714 101.92 89.4479 100.166 91.2009C98.4108 92.9539 97.5333 95.0298 97.5333 97.4286C97.5333 99.8735 98.3992 101.961 100.131 103.691C101.863 105.421 103.952 106.286 106.4 106.286C108.848 106.286 110.937 105.421 112.669 103.691C114.401 101.961 115.267 99.8735 115.267 97.4286ZM115.267 26.5714C115.267 24.1726 114.389 22.0967 112.634 20.3438C110.88 18.5908 108.801 17.7143 106.4 17.7143C103.999 17.7143 101.92 18.5908 100.166 20.3438C98.4108 22.0967 97.5333 24.1726 97.5333 26.5714C97.5333 29.0164 98.3992 31.1038 100.131 32.8337C101.863 34.5636 103.952 35.4286 106.4 35.4286C108.848 35.4286 110.937 34.5636 112.669 32.8337C114.401 31.1038 115.267 29.0164 115.267 26.5714ZM88.6667 55.7031V68.5045C88.6667 68.9658 88.505 69.4156 88.1818 69.8538C87.8585 70.292 87.4891 70.5342 87.0734 70.5804L76.3365 72.2411C75.8285 73.8557 75.0896 75.6086 74.1198 77.5C75.6899 79.7143 77.7681 82.3668 80.3542 85.4576C80.6774 85.965 80.8391 86.4263 80.8391 86.8415C80.8391 87.3951 80.6774 87.8333 80.3542 88.1562C79.292 89.5402 77.3871 91.6045 74.6393 94.3493C71.8916 97.0941 70.079 98.4665 69.2016 98.4665C68.6936 98.4665 68.2087 98.3051 67.7469 97.9821L59.7807 91.7545C58.0721 92.631 56.2941 93.346 54.4469 93.8996C53.9389 98.8817 53.4078 102.457 52.8536 104.625C52.5304 105.732 51.8377 106.286 50.7755 106.286H37.8911C37.3832 106.286 36.9214 106.113 36.5057 105.767C36.0901 105.421 35.8592 105.017 35.813 104.556L34.2198 93.9688C32.6497 93.5074 30.9179 92.7924 29.0245 91.8237L20.8505 97.9821C20.5273 98.3051 20.0655 98.4665 19.4651 98.4665C18.9571 98.4665 18.4722 98.282 18.0104 97.9129C11.3604 91.7775 8.03542 88.0871 8.03542 86.8415C8.03542 86.4263 8.19705 85.9881 8.52031 85.5268C8.98212 84.881 9.92882 83.6585 11.3604 81.8594C12.792 80.0603 13.8773 78.6533 14.6161 77.6384C13.554 75.6086 12.7458 73.7173 12.1917 71.9643L1.6625 70.3036C1.20069 70.2574 0.80816 70.0383 0.484896 69.6462C0.161632 69.2541 0 68.8043 0 68.2969V55.4955C0 55.0342 0.161632 54.5845 0.484896 54.1462C0.80816 53.708 1.1776 53.4658 1.59323 53.4196L12.3302 51.7589C12.8382 50.1444 13.5771 48.3914 14.5469 46.5C12.9767 44.2857 10.8986 41.6332 8.3125 38.5424C7.98924 38.035 7.8276 37.5737 7.8276 37.1585C7.8276 36.6049 7.98924 36.1436 8.3125 35.7746C9.32847 34.3906 11.2219 32.3378 13.9927 29.6161C16.7635 26.8944 18.5877 25.5335 19.4651 25.5335C19.9731 25.5335 20.458 25.6949 20.9198 26.0179L28.8859 32.2455C30.4561 31.4152 32.234 30.6771 34.2198 30.0313C34.7278 25.0491 35.2589 21.497 35.813 19.375C36.1363 18.2679 36.829 17.7143 37.8911 17.7143H50.7755C51.2835 17.7143 51.7453 17.8873 52.1609 18.2333C52.5766 18.5792 52.8075 18.9829 52.8536 19.4442L54.4469 30.0313C56.017 30.4926 57.7488 31.2076 59.6422 32.1763L67.8161 26.0179C68.1856 25.6949 68.6474 25.5335 69.2016 25.5335C69.7095 25.5335 70.1944 25.718 70.6562 26.0871C77.3063 32.2225 80.6312 35.913 80.6312 37.1585C80.6312 37.5275 80.4696 37.9658 80.1464 38.4732C79.5922 39.2113 78.6224 40.4568 77.237 42.2098C75.8516 43.9628 74.8125 45.3467 74.1198 46.3616C75.1819 48.5759 75.967 50.4673 76.475 52.0357L87.0042 53.6272C87.466 53.7195 87.8585 53.9617 88.1818 54.3538C88.505 54.7459 88.6667 55.1957 88.6667 55.7031ZM133 92.5848V102.272C133 103.01 129.56 103.725 122.679 104.417C122.124 105.663 121.432 106.862 120.601 108.016C122.956 113.228 124.133 116.411 124.133 117.565C124.133 117.749 124.041 117.911 123.856 118.049C118.222 121.324 115.359 122.962 115.267 122.962C114.897 122.962 113.835 121.878 112.08 119.71C110.325 117.542 109.125 115.973 108.478 115.004C107.555 115.097 106.862 115.143 106.4 115.143C105.938 115.143 105.245 115.097 104.322 115.004C103.675 115.973 102.475 117.542 100.72 119.71C98.9649 121.878 97.9028 122.962 97.5333 122.962C97.441 122.962 94.5778 121.324 88.9437 118.049C88.759 117.911 88.6667 117.749 88.6667 117.565C88.6667 116.411 89.8443 113.228 92.1995 108.016C91.3682 106.862 90.6755 105.663 90.1214 104.417C83.2404 103.725 79.8 103.01 79.8 102.272V92.5848C79.8 91.8467 83.2404 91.1317 90.1214 90.4397C90.7217 89.1019 91.4144 87.9025 92.1995 86.8415C89.8443 81.6287 88.6667 78.4457 88.6667 77.2924C88.6667 77.1079 88.759 76.9464 88.9437 76.808C89.1285 76.7158 89.9366 76.2545 91.3682 75.4241C92.7998 74.5938 94.1622 73.8095 95.4552 73.0714C96.7483 72.3333 97.441 71.9643 97.5333 71.9643C97.9028 71.9643 98.9649 73.0368 100.72 75.1819C102.475 77.327 103.675 78.8839 104.322 79.8527C105.245 79.7604 105.938 79.7143 106.4 79.7143C106.862 79.7143 107.555 79.7604 108.478 79.8527C110.833 76.5774 112.958 73.994 114.851 72.1027L115.267 71.9643C115.451 71.9643 118.315 73.5789 123.856 76.808C124.041 76.9464 124.133 77.1079 124.133 77.2924C124.133 78.4457 122.956 81.6287 120.601 86.8415C121.386 87.9025 122.078 89.1019 122.679 90.4397C129.56 91.1317 133 91.8467 133 92.5848ZM133 21.7277V31.4152C133 32.1533 129.56 32.8683 122.679 33.5603C122.124 34.8058 121.432 36.0052 120.601 37.1585C122.956 42.3713 124.133 45.5543 124.133 46.7076C124.133 46.8921 124.041 47.0536 123.856 47.192C118.222 50.4673 115.359 52.1049 115.267 52.1049C114.897 52.1049 113.835 51.0208 112.08 48.8527C110.325 46.6845 109.125 45.1161 108.478 44.1473C107.555 44.2396 106.862 44.2857 106.4 44.2857C105.938 44.2857 105.245 44.2396 104.322 44.1473C103.675 45.1161 102.475 46.6845 100.72 48.8527C98.9649 51.0208 97.9028 52.1049 97.5333 52.1049C97.441 52.1049 94.5778 50.4673 88.9437 47.192C88.759 47.0536 88.6667 46.8921 88.6667 46.7076C88.6667 45.5543 89.8443 42.3713 92.1995 37.1585C91.3682 36.0052 90.6755 34.8058 90.1214 33.5603C83.2404 32.8683 79.8 32.1533 79.8 31.4152V21.7277C79.8 20.9896 83.2404 20.2746 90.1214 19.5826C90.7217 18.2448 91.4144 17.0454 92.1995 15.9844C89.8443 10.7716 88.6667 7.58855 88.6667 6.43527C88.6667 6.25075 88.759 6.08929 88.9437 5.9509C89.1285 5.85864 89.9366 5.39733 91.3682 4.56697C92.7998 3.73661 94.1622 2.95239 95.4552 2.21429C96.7483 1.47619 97.441 1.10715 97.5333 1.10715C97.9028 1.10715 98.9649 2.17969 100.72 4.32478C102.475 6.46987 103.675 8.02679 104.322 8.99554C105.245 8.90328 105.938 8.85715 106.4 8.85715C106.862 8.85715 107.555 8.90328 108.478 8.99554C110.833 5.72024 112.958 3.13691 114.851 1.24554L115.267 1.10715C115.451 1.10715 118.315 2.72173 123.856 5.9509C124.041 6.08929 124.133 6.25075 124.133 6.43527C124.133 7.58855 122.956 10.7716 120.601 15.9844C121.386 17.0454 122.078 18.2448 122.679 19.5826C129.56 20.2746 133 20.9896 133 21.7277Z" fill="url(#paint0_linear_28_672)"/>
<defs>
<linearGradient id="paint0_linear_28_672" x1="66.5" y1="1.10715" x2="66.5" y2="122.962" gradientUnits="userSpaceOnUse">
<stop stop-color="#DDAC43"/>
<stop offset="0.24" stop-color="#E8B849"/>
<stop offset="0.44" stop-color="#E8B849"/>
<stop offset="0.63" stop-color="#F8E680"/>
<stop offset="0.81" stop-color="#EBC654"/>
<stop offset="1" stop-color="#EBC654"/>
</linearGradient>
</defs>
</svg>
